<?xml version="1.0" encoding="UTF-8" standalone="no"?>
<!-- Created with Inkscape (http://www.inkscape.org/) -->

<svg
   xmlns:dc="http://purl.org/dc/elements/1.1/"
   xmlns:cc="http://creativecommons.org/ns#"
   xmlns:rdf="http://www.w3.org/1999/02/22-rdf-syntax-ns#"
   xmlns:svg="http://www.w3.org/2000/svg"
   xmlns="http://www.w3.org/2000/svg"
   xmlns:sodipodi="http://sodipodi.sourceforge.net/DTD/sodipodi-0.dtd"
   xmlns:inkscape="http://www.inkscape.org/namespaces/inkscape"
   width="127.76586mm"
   height="77.02951mm"
   viewBox="0 0 127.76587 77.029511"
   id="svg4307"
   version="1.1"
   inkscape:version="0.91 r13725"
   sodipodi:docname="mark.svg">
  <defs
     id="defs3">
    <inkscape:path-effect
       effect="powerstroke"
       id="path-effect4855"
       is_visible="true"
       offset_points="0,0.14111111"
       sort_points="true"
       interpolator_type="Linear"
       interpolator_beta="0.2"
       start_linecap_type="zerowidth"
       linejoin_type="round"
       miter_limit="4"
       end_linecap_type="zerowidth"
       cusp_linecap_type="round" />
  </defs>
  <sodipodi:namedview
     inkscape:document-units="mm"
     id="base"
     pagecolor="#ffffff"
     bordercolor="#666666"
     borderopacity="1.0"
     inkscape:pageopacity="0.0"
     inkscape:pageshadow="2"
     inkscape:zoom="1.4"
     inkscape:cx="259.52151"
     inkscape:cy="-96.349267"
     inkscape:current-layer="layer1"
     showgrid="false"
     borderlayer="true"
     fit-margin-top="0"
     fit-margin-left="0"
     fit-margin-right="0"
     fit-margin-bottom="0"
     inkscape:window-width="2560"
     inkscape:window-height="1377"
     inkscape:window-x="1912"
     inkscape:window-y="-8"
     inkscape:window-maximized="1" />
  <metadata
     id="metadata4">
    <rdf:RDF>
      <cc:Work
         rdf:about="">
        <dc:format>image/svg+xml</dc:format>
        <dc:type
           rdf:resource="http://purl.org/dc/dcmitype/StillImage" />
        <dc:title></dc:title>
      </cc:Work>
    </rdf:RDF>
  </metadata>
  <g
     inkscape:label="Layer 1"
     inkscape:groupmode="layer"
     id="layer1"
     transform="translate(-40.695319,-176.58002)">
    <path
       style="fill:#000000"
       d="m 79.153403,252.61047 c -0.658283,-0.70121 -3.580864,-2.3552 0,0 z m 20.105683,0.95973 c -0.04529,-0.039 -8.516174,-0.36613 -11.346866,-0.4382 -0.832854,-0.0212 -4.985235,-0.5343 -5.676603,-0.70144 -2.792174,1.38742 -1.563501,0.12887 -3.740497,-0.5213 -1.029485,-0.25902 -2.733139,-0.54347 -3.785901,-0.63211 -1.052765,-0.0887 -1.981296,-0.26989 -2.063409,-0.40275 -0.08211,-0.13286 -0.432816,-0.1704 -0.779345,-0.0834 -0.42333,0.10625 -0.802394,-0.0323 -1.155333,-0.4223 -0.37489,-0.41424 -0.872566,-0.58042 -1.73826,-0.58042 -1.240085,0 -2.499391,-0.41983 -3.164699,-1.05505 -0.205114,-0.19583 -0.610371,-0.35607 -0.900566,-0.35607 -0.290197,0 -0.596789,-0.1119 -0.681315,-0.24866 -0.08453,-0.13677 -1.647771,-0.73334 -3.473879,-1.3257 -1.826105,-0.59237 -3.904109,-1.41828 -4.617786,-1.83535 -0.713677,-0.41707 -1.559782,-0.84153 -1.880233,-0.94323 -0.320452,-0.10171 -1.066455,-0.56941 -1.657786,-1.03935 -0.591331,-0.46993 -1.681847,-1.19516 -2.423369,-1.61162 -0.741522,-0.41646 -1.348351,-0.9058 -1.348508,-1.08742 -1.58e-4,-0.18163 -0.824919,-1.07063 -1.832803,-1.97556 -1.007883,-0.90493 -1.833383,-1.80806 -1.834444,-2.00696 -0.0011,-0.1989 -0.187595,-0.43289 -0.414519,-0.51997 -0.226925,-0.0871 -0.482377,-0.3782 -0.567672,-0.64694 -0.0853,-0.26874 -0.380411,-0.73326 -0.655812,-1.03226 -0.596801,-0.64795 -1.662517,-2.87014 -2.223258,-4.63586 -0.587113,-1.84877 -0.795634,-6.58697 -0.39208,-8.90923 0.351233,-2.02118 1.265027,-5.26389 1.720057,-6.10383 0.142606,-0.26324 0.825953,-1.57081 1.518548,-2.90571 0.692595,-1.33491 1.634167,-2.85409 2.092381,-3.37596 0.458214,-0.52188 1.248084,-1.55201 1.755267,-2.28917 1.22224,-1.77647 4.855649,-5.33146 6.619603,-6.47674 0.776111,-0.5039 1.650144,-1.1822 1.942296,-1.50732 0.292152,-0.32512 1.054152,-0.8493 1.693334,-1.16484 0.639181,-0.31554 1.670148,-1.03542 2.291036,-1.59973 0.620889,-0.56431 1.519999,-1.19101 1.998024,-1.39266 0.478022,-0.20166 1.022762,-0.55176 1.21053,-0.77801 0.187771,-0.22625 1.034911,-0.69283 1.882535,-1.03686 0.847623,-0.34402 1.541134,-0.72919 1.541134,-0.85593 0,-0.12673 0.244398,-0.30799 0.543105,-0.4028 0.29871,-0.0948 0.993645,-0.47811 1.544303,-0.8518 0.550655,-0.37369 1.559862,-0.8691 2.242676,-1.10092 0.682817,-0.23183 2.178632,-0.86571 3.324033,-1.40864 1.145402,-0.54292 2.654049,-1.23166 3.352549,-1.53052 0.6985,-0.29887 1.7145,-0.74036 2.257778,-0.9811 1.854479,-0.82176 4.091536,-1.61239 4.562593,-1.61254 0.258702,-7e-5 0.512702,-0.10666 0.564445,-0.23685 0.116495,-0.29314 3.225901,-1.1362 9.125184,-2.47412 2.483555,-0.56325 4.579055,-1.1186 4.656666,-1.23411 0.07761,-0.11551 1.18817,-0.29982 2.46791,-0.40957 1.27975,-0.10976 2.74025,-0.32383 3.24556,-0.4757 1.42467,-0.42819 5.88973,-1.06643 6.31608,-0.90282 0.20992,0.0805 1.04989,-0.0141 1.86661,-0.21038 2.43734,-0.58571 9.86307,-0.82169 17.14828,-0.54494 5.31093,0.20174 10.69845,1.10166 11.86552,1.98199 1.25645,0.94774 0.64681,4.22414 -0.78598,4.22414 -0.37313,0 -1.71692,-0.25193 -2.9862,-0.55985 -3.86279,-0.93707 -7.35694,-1.38785 -12.28254,-1.58457 -6.78975,-0.27116 -16.60792,0.55463 -20.17633,1.697 -0.64657,0.20699 -2.31858,0.53643 -3.71558,0.73209 -4.40905,0.61751 -8.779591,1.98073 -5.843145,1.82254 0.789045,-0.0425 1.56081,-0.15527 1.71503,-0.25058 0.617663,-0.38174 3.247305,-0.75126 8.117175,-1.14064 2.81487,-0.22507 5.68687,-0.55248 6.38222,-0.72757 0.87802,-0.22108 1.57777,-0.23178 2.29039,-0.035 0.61885,0.17087 1.02611,0.17902 1.02611,0.0205 0,-0.14455 0.47625,-0.19211 1.05833,-0.1057 0.99282,0.14739 4.88734,0.41162 6.13834,0.41647 0.58202,0.002 4.53217,0.43302 7.76111,0.84633 1.00894,0.12915 3.03198,0.49901 4.49564,0.8219 1.46366,0.32289 3.01192,0.58708 3.44057,0.58708 0.42865,0 0.84896,0.1126 0.93402,0.25023 0.085,0.13763 0.61618,0.33681 1.18028,0.44264 0.56411,0.10582 1.23226,0.30328 1.48479,0.43878 0.41727,0.22391 1.13642,0.43447 4.72955,1.38479 0.64128,0.16961 1.32358,0.49829 1.51623,0.73041 0.19264,0.23212 0.56044,0.42204 0.81735,0.42204 0.2569,0 0.7176,0.16789 1.02377,0.37309 0.30618,0.2052 1.00119,0.53724 1.54446,0.73786 0.54328,0.20061 1.49578,0.59632 2.11667,0.87934 0.62089,0.28302 1.55809,0.67171 2.08266,0.86375 0.52458,0.19204 1.24906,0.64444 1.60995,1.00534 0.3609,0.36089 0.76874,0.65617 0.90632,0.65617 0.13757,0 0.7466,0.48206 1.35338,1.07124 0.60679,0.58918 1.3678,1.25593 1.69113,1.48166 0.65459,0.45701 2.65767,3.20869 2.65767,3.65092 0,0.15562 0.381,0.62241 0.84667,1.03732 0.46567,0.41492 0.84667,0.91331 0.84667,1.10755 0,0.19424 0.13042,0.39664 0.28982,0.44977 0.1594,0.0531 0.4769,0.76222 0.70555,1.57575 0.22866,0.81352 0.60473,2.14588 0.83572,2.96079 0.70776,2.49693 0.42613,10.41348 -0.4305,12.10081 -0.1282,0.25253 -0.31975,0.92107 -0.42566,1.48564 -0.10592,0.56457 -0.35256,1.11996 -0.54809,1.23419 -0.19553,0.11423 -0.77646,0.9062 -1.29096,1.75992 -0.5145,0.85372 -1.23735,1.86359 -1.60633,2.24415 -0.36898,0.38056 -0.73837,1.02936 -0.82085,1.44178 -0.0825,0.41242 -0.46018,1.11706 -0.83932,1.56585 -0.7277,0.8614 -1.48036,1.78392 -2.64272,3.23913 -0.85705,1.07298 -2.88757,3.12615 -4.5189,4.5693 -1.15076,1.01802 -1.72057,1.3799 -3.44911,2.19055 -0.42424,0.19896 -1.01537,0.58908 -1.31361,0.86693 -0.29824,0.27786 -1.12588,0.77953 -1.83921,1.11483 -0.71332,0.3353 -1.29695,0.70336 -1.29695,0.81792 0,0.11455 -0.508,0.43736 -1.12888,0.71734 -0.62089,0.27998 -1.12889,0.58577 -1.12889,0.67952 0,0.0938 -0.41275,0.34555 -0.91723,0.55955 -0.50447,0.21399 -1.80622,0.79682 -2.89277,1.29517 -1.08656,0.49836 -2.57833,1.14803 -3.31506,1.44371 -0.73672,0.29568 -1.33997,0.63285 -1.34055,0.74927 -5.7e-4,0.11642 -0.15269,0.21167 -0.33802,0.21167 -0.41599,0 -6.18805,2.23409 -6.57748,2.54584 -0.46234,0.3701 -3.66689,1.12209 -4.83852,1.13543 -0.59848,0.007 -1.59615,0.20541 -2.21704,0.44133 -0.62089,0.23592 -2.13983,0.48331 -3.37542,0.54975 -1.2356,0.0664 -2.6326,0.238 -3.10445,0.38125 -1.2548,0.38094 -4.39482,0.8602 -5.37346,0.82014 -0.46567,-0.0191 -1.29117,0.0534 -1.83445,0.16104 -0.85227,0.16884 -9.236303,0.42508 -9.396464,0.28717 z m 9.875264,-1.47811 c 0.90083,-0.14656 1.89187,-0.25758 2.20231,-0.24673 0.72117,0.0252 8.13294,-1.10734 10.72445,-1.63875 1.08655,-0.22282 2.69398,-0.47926 3.57205,-0.56988 0.87807,-0.0906 2.08457,-0.42049 2.68111,-0.73305 0.59654,-0.31256 1.80107,-0.80321 2.67673,-1.09033 0.87567,-0.28711 1.82817,-0.64274 2.11667,-0.79027 0.60155,-0.30763 3.03718,-1.29449 4.89899,-1.98496 0.6985,-0.25904 1.397,-0.61423 1.55223,-0.7893 0.15522,-0.17508 0.91722,-0.55022 1.69333,-0.83367 1.4159,-0.51709 5.56227,-2.89647 5.73852,-3.29302 0.0517,-0.11641 0.32999,-0.21166 0.61834,-0.21166 0.28835,0 0.60404,-0.12907 0.70154,-0.28683 0.0975,-0.15775 0.29549,-0.21376 0.43999,-0.12445 0.14449,0.0893 0.26674,-0.004 0.27166,-0.20707 0.009,-0.37712 3.33773,-2.76832 3.85356,-2.76832 0.15634,0 0.74193,-0.4445 1.30133,-0.98778 0.55939,-0.54327 1.21388,-0.98777 1.4544,-0.98777 0.24053,0 0.43733,-0.099 0.43733,-0.2199 0,-0.12094 0.42072,-0.66069 0.93493,-1.19945 2.08297,-2.18235 4.73215,-5.67887 4.88618,-6.449 0.0902,-0.45074 0.65878,-1.28847 1.26362,-1.86162 0.60484,-0.57314 1.09971,-1.22157 1.09971,-1.44096 0,-0.21938 0.42211,-1.00242 0.93801,-1.74009 1.58302,-2.26347 2.30093,-5.89433 2.10764,-10.65945 -0.1205,-2.97063 -1.10682,-7.46382 -1.69228,-7.70916 -0.12347,-0.0517 -0.22448,-0.25431 -0.22448,-0.45015 0,-0.19584 -0.267,-0.59771 -0.59334,-0.89304 -0.32634,-0.29533 -0.79045,-0.91826 -1.03137,-1.3843 -0.54374,-1.05182 -1.95452,-2.86892 -2.89085,-3.72344 -1.70915,-1.55982 -3.05256,-2.62722 -3.30657,-2.62722 -0.15116,0 -0.51006,-0.25993 -0.79757,-0.57762 -0.52626,-0.58151 -0.73317,-0.68795 -4.0803,-2.09917 -1.00895,-0.42539 -2.40595,-1.0312 -3.10445,-1.34624 -0.6985,-0.31505 -1.651,-0.7408 -2.11666,-0.94612 -1.67851,-0.74007 -8.23354,-2.69776 -10.8617,-3.24389 -5.31099,-1.10362 -8.55034,-1.52931 -13.69163,-1.79924 -4.29638,-0.22557 -7.90777,-0.42975 -9.22918,-0.5218 -0.72982,-0.0508 -1.2721,-0.004 -1.20508,0.10475 0.16547,0.26773 -2.15598,0.51372 -4.31192,0.45692 -0.97017,-0.0256 -1.76392,0.0573 -1.76389,0.18412 4e-5,0.12683 -0.85718,0.20763 -1.90493,0.17955 -1.04775,-0.0281 -2.286,0.0996 -2.75167,0.28383 -0.46567,0.18417 -1.21885,0.40959 -1.67375,0.50092 1.18196,-0.0363 5.87832,0.42194 7.57908,0.26967 0.95365,-0.0891 2.27656,-0.04 2.9398,0.10903 0.7055,0.15852 1.39041,0.16769 1.65056,0.0221 0.25751,-0.14411 0.91994,-0.14206 1.5738,0.005 0.94005,0.21121 3.49944,0.33613 9.90648,0.48351 0.44511,0.0103 1.00924,0.18053 1.25362,0.37841 0.3653,0.29581 0.4033,0.29168 0.21369,-0.0232 -0.17129,-0.28447 -0.0945,-0.34078 0.2986,-0.21888 0.29108,0.0903 1.73056,0.29863 3.19885,0.46302 3.12126,0.34945 3.95575,0.52592 4.51067,0.9539 0.32126,0.24778 0.35608,0.22948 0.16536,-0.0869 -0.18772,-0.31139 -0.12114,-0.35447 0.29861,-0.19319 0.2971,0.11415 1.42739,0.39429 2.51175,0.62253 1.08436,0.22823 2.09401,0.53742 2.24367,0.68707 0.14965,0.14966 0.63519,0.2721 1.07898,0.2721 0.44378,0 0.74893,0.0953 0.67812,0.21167 -0.0708,0.11642 0.33444,0.2313 0.90057,0.2553 0.56612,0.024 1.41032,0.24547 1.87598,0.49215 0.46567,0.24668 1.06758,0.4493 1.33759,0.45025 0.55862,0.002 4.16781,1.3724 4.57497,1.73712 0.14746,0.1321 0.48395,0.24018 0.74775,0.24018 0.2638,0 1.11011,0.42428 1.8807,0.94284 0.77058,0.51856 1.62301,1.02802 1.8943,1.13212 1.03607,0.39758 4.36472,2.80363 4.21464,3.04647 -0.0866,0.14013 -0.037,0.21988 0.11029,0.17723 0.63891,-0.18505 4.28335,3.95053 5.48631,6.22567 1.95956,3.70608 1.82026,11.5934 -0.25993,14.71729 -0.35992,0.54051 -0.6544,1.14069 -0.6544,1.33374 0,0.56903 -1.01797,2.07481 -1.24749,1.84529 -0.11586,-0.11586 -0.18503,-0.0837 -0.15371,0.0716 0.12099,0.59973 -0.0336,0.98423 -0.67302,1.6742 -0.36471,0.39353 -0.75629,0.62232 -0.87018,0.50843 -0.11389,-0.11389 -0.17133,-0.0801 -0.12764,0.0752 0.12253,0.43533 -0.32061,1.55222 -0.61586,1.55222 -0.14476,0 -0.26321,0.16642 -0.26321,0.36982 0,0.40677 -4.7689,5.31893 -6.90174,7.10907 -1.63946,1.37603 -5.05827,3.66881 -6.13677,4.11554 -0.43471,0.18006 -0.79038,0.41726 -0.79038,0.52712 0,0.10986 -0.66675,0.49681 -1.48166,0.8599 -0.81492,0.36309 -2.81517,1.31593 -4.445,2.11743 -2.76384,1.35916 -6.61602,2.90407 -11.57111,4.64058 -1.55295,0.54422 -5.07094,1.42565 -6.77334,1.69705 -0.85372,0.1361 -2.40966,0.44197 -3.45765,0.67971 -1.04799,0.23774 -2.99943,0.51108 -4.33653,0.60741 -1.3371,0.0963 -2.76566,0.31111 -3.17457,0.47728 -0.43878,0.17831 -3.63497,0.33527 -7.79902,0.38301 -10.57246,0.12122 -16.582898,-0.366 -24.899552,-2.01844 -6.363702,-1.2644 -15.881561,-4.37272 -15.881561,-5.18656 0,-0.16074 -0.09525,-0.27142 -0.211667,-0.24596 -0.82673,0.18082 -4.868333,-1.78823 -4.868333,-2.37182 0,-0.1697 -0.0826,-0.22595 -0.183558,-0.12499 -0.100957,0.10095 -0.481957,-0.13842 -0.846667,-0.53195 -0.36471,-0.39353 -0.663109,-0.641 -0.663109,-0.54993 0,0.2415 -1.129938,-0.39962 -2.187214,-1.24101 -0.504467,-0.40146 -0.917217,-0.89618 -0.917222,-1.09936 -4e-6,-0.20319 -0.108675,-0.30228 -0.241489,-0.22019 -0.315694,0.19511 -3.189683,-2.66101 -3.714552,-3.69146 -0.223817,-0.43941 -0.675,-1.17992 -1.002629,-1.64559 -0.327628,-0.46566 -0.883618,-1.84234 -1.235531,-3.05928 -0.532889,-1.84277 -0.621869,-2.71551 -0.532317,-5.22111 0.101883,-2.85061 0.168884,-3.13438 1.276742,-5.40738 1.468963,-3.01388 4.178071,-7.19667 4.661139,-7.19667 0.200913,0 0.367815,-0.127 0.370895,-0.28222 0.0031,-0.15522 0.352452,-0.66322 0.776383,-1.12889 3.574456,-3.92636 4.549831,-4.90378 4.762414,-4.7724 0.13483,0.0833 0.321336,-0.047 0.414458,-0.28971 0.09312,-0.24268 0.334936,-0.44122 0.537363,-0.44122 0.202429,0 0.688642,-0.381 1.080474,-0.84667 0.391833,-0.46567 0.834035,-0.84667 0.982671,-0.84667 0.148637,0 0.348406,-0.20367 0.443933,-0.45261 0.09841,-0.25645 0.354667,-0.38317 0.591253,-0.29238 0.229663,0.0881 0.387343,0.0275 0.350399,-0.13464 -0.07338,-0.32214 5.98869,-4.58858 6.208072,-4.3692 0.07416,0.0742 0.382465,-0.0958 0.685114,-0.37781 0.769747,-0.71713 4.3654,-2.56797 4.577255,-2.35611 0.09604,0.096 0.174611,0.0418 0.174611,-0.12042 0,-0.41521 1.588082,-1.0263 2.002127,-0.77041 0.220026,0.13599 0.26981,0.0937 0.138961,-0.11802 -0.218099,-0.35289 2.392629,-1.72507 3.29169,-1.73008 0.271639,-0.001 0.493889,-0.13726 0.493889,-0.30164 0,-0.16438 0.127,-0.22039 0.282222,-0.12446 0.155222,0.0959 0.282222,0.0633 0.282222,-0.0725 0,-0.13582 0.66675,-0.51915 1.481667,-0.85184 2.400322,-0.97993 13.097967,-4.47538 16.157222,-5.27936 2.90143,-0.7625 7.280615,-1.60897 7.858715,-1.51904 0.17915,0.0279 0.51623,-0.0301 0.74906,-0.12879 1.93694,-0.82114 10.60636,-2.04918 12.73251,-1.80358 0.6094,0.0704 1.16952,0.0284 1.24471,-0.0932 0.2472,-0.39997 14.10439,-8.4e-4 14.79529,0.42627 0.18326,0.11326 1.05437,0.25689 1.93579,0.31917 0.88142,0.0623 2.17489,0.29951 2.87437,0.52717 0.69947,0.22766 1.78805,0.52631 2.41905,0.66367 l 1.14728,0.24974 -0.0632,-1.4074 c -0.0364,-0.81086 -0.22366,-1.50695 -0.44172,-1.64227 -0.57638,-0.35766 -4.99431,-1.36636 -6.58738,-1.50402 -0.77611,-0.0671 -3.37961,-0.14901 -5.78556,-0.1821 -2.40594,-0.0331 -4.6557,-0.16395 -4.99945,-0.2908 -0.36284,-0.13388 -0.69538,-0.11676 -0.79277,0.0408 -0.19286,0.31206 -1.63688,0.36826 -1.93002,0.0751 -0.30813,-0.30813 -1.00819,-0.34408 -1.18329,-0.0608 -0.0874,0.1414 -1.02681,0.25709 -2.0876,0.25709 -1.06079,0 -2.92037,0.20508 -4.1324,0.45573 -1.57643,0.32601 -2.33786,0.37194 -2.67508,0.16134 -0.27893,-0.1742 -0.57498,-0.19081 -0.72509,-0.0407 -0.13954,0.13954 -1.01309,0.28918 -1.94122,0.33255 -0.92814,0.0434 -1.75955,0.17578 -1.84759,0.29425 -0.25328,0.34082 -4.56963,1.09305 -5.27271,0.91891 -0.34925,-0.0865 -0.635,-0.0279 -0.635,0.13032 0,0.15818 -0.25633,0.2876 -0.56963,0.2876 -0.567386,0 -4.710154,1.04463 -5.10119,1.2863 -0.18759,0.11594 -1.69677,0.53257 -9.145845,2.52486 -2.560015,0.68468 -6.918689,2.38013 -7.624259,2.96571 -0.209521,0.17388 -0.822864,0.33947 -1.362989,0.36797 -0.540125,0.0285 -0.961452,0.17882 -0.936286,0.33405 0.02517,0.15522 -0.23368,0.27281 -0.575212,0.26132 -0.343554,-0.0116 -0.543512,0.10442 -0.44759,0.25963 0.103499,0.16747 -0.02182,0.20563 -0.310913,0.0947 -0.2796,-0.10729 -0.413574,-0.0714 -0.316978,0.0849 0.09202,0.14889 -0.14165,0.34826 -0.519272,0.44304 -0.377621,0.0948 -1.293339,0.4795 -2.034929,0.85494 -0.74159,0.37544 -1.51732,0.68262 -1.723847,0.68262 -0.206528,0 -0.375503,0.12104 -0.375503,0.26898 0,0.14794 -0.47625,0.49057 -1.058333,0.76141 -0.582083,0.27083 -1.139385,0.61056 -1.238447,0.75495 -0.09906,0.14439 -0.340933,0.16313 -0.537495,0.0417 -0.223111,-0.13789 -0.287006,-0.107 -0.170065,0.0822 0.178946,0.28955 -1.65698,1.10609 -2.167193,0.96388 -0.127953,-0.0357 -0.153418,0.0634 -0.05658,0.22002 0.20874,0.33775 -1.463771,1.41988 -2.196871,1.4214 -0.2808,5.6e-4 -0.438975,0.11685 -0.3515,0.25839 0.178562,0.28892 -3.09002,2.84711 -3.637733,2.84711 -0.193396,0 -0.578785,0.251 -0.856421,0.55779 -0.277636,0.30678 -0.595683,0.50161 -0.706772,0.43296 -0.111088,-0.0687 -0.478808,0.19355 -0.817154,0.58268 -0.338347,0.38913 -0.72998,0.63656 -0.870296,0.54984 -0.140316,-0.0867 -0.481505,0.22557 -0.758198,0.69397 -0.276694,0.46841 -0.58291,0.85165 -0.680481,0.85165 -0.09757,0 -0.723883,0.53975 -1.391802,1.19944 -0.66792,0.6597 -1.111728,1.00895 -0.98624,0.77611 0.125488,-0.23283 -0.109819,-0.11544 -0.522905,0.26086 -0.413085,0.37631 -0.751064,0.79016 -0.751064,0.91967 0,0.41272 -1.737086,2.63234 -2.002622,2.55892 -0.140336,-0.0388 -0.240116,0.0247 -0.221734,0.14111 0.08852,0.56065 -0.06576,0.91051 -0.373371,0.84666 -0.186972,-0.0388 -0.345722,0.0633 -0.352777,0.227 -0.01667,0.38656 -1.84953,3.43475 -2.458755,4.08909 -0.258703,0.27787 -0.408089,0.56749 -0.331967,0.64361 0.07612,0.0761 -0.05799,0.51818 -0.298017,0.98235 -0.922699,1.7843 -1.864238,5.17008 -2.143784,7.70906 -0.251633,2.28546 -0.214729,3.04721 0.270048,5.57408 0.459936,2.39739 0.79733,3.3291 1.865107,5.15043 0.716976,1.22297 1.420628,2.29591 1.56367,2.38432 0.143042,0.0884 0.174882,0.29858 0.07076,0.46706 -0.114069,0.18456 -0.05772,0.22499 0.141763,0.1017 0.207989,-0.12854 0.46955,0.1247 0.703517,0.68115 0.20484,0.48717 0.467603,0.86386 0.58392,0.83709 0.349513,-0.0804 2.399097,1.75823 2.573914,2.30903 0.08938,0.2816 0.663138,0.81054 1.275026,1.17542 0.611888,0.36489 1.0169,0.76883 0.900026,0.89766 -0.116873,0.12882 -0.0688,0.15218 0.106823,0.0519 0.175627,-0.10029 0.747127,0.10762 1.27,0.46202 0.522874,0.35439 1.776179,1.08283 2.785124,1.61875 1.008944,0.53592 1.912143,1.0805 2.007109,1.21018 0.09497,0.12967 0.253105,0.22797 0.351421,0.21845 0.646691,-0.0627 1.835587,0.36868 1.685506,0.61152 -0.105321,0.17041 -0.04203,0.20611 0.152378,0.086 0.295599,-0.18269 1.020949,0.015 3.772776,1.02824 0.424889,0.15645 0.704043,0.39526 0.620342,0.53069 -0.0837,0.13543 0.04202,0.17171 0.279374,0.0806 0.237355,-0.0911 1.02195,0.16437 1.743538,0.56768 0.773114,0.4321 1.754141,0.73328 2.388506,0.73328 0.592085,0 1.981129,0.32631 3.086758,0.72513 1.105631,0.39882 2.727787,0.79053 3.604793,0.87045 0.877008,0.0799 2.107218,0.31746 2.733805,0.52786 0.626587,0.2104 2.028249,0.44321 3.114804,0.51736 1.086556,0.0742 2.547056,0.2743 3.245556,0.44477 2.710318,0.66145 20.945506,0.92019 24.467686,0.34716 z m -37.732129,-2.30384 c 0,-0.15523 -0.134496,-0.28223 -0.298879,-0.28223 -0.164383,0 -0.220388,0.127 -0.124455,0.28223 0.09593,0.15522 0.230429,0.28222 0.298879,0.28222 0.06845,0 0.124455,-0.127 0.124455,-0.28222 z m 33.443329,-1.5313 c 6.34002,-0.33202 15.97015,-1.90082 21.02556,-3.42518 2.59091,-0.78125 7.04515,-2.5626 10.8109,-4.32355 1.36694,-0.63921 2.60519,-1.1622 2.75167,-1.1622 0.14647,0 0.26632,-0.11506 0.26632,-0.25569 0,-0.14063 0.58966,-0.45661 1.31035,-0.70217 1.14888,-0.39147 5.04267,-2.5809 7.18944,-4.04253 2.42534,-1.65131 9.28021,-8.27377 9.28021,-8.96558 0,-0.21962 0.17737,-0.50087 0.39415,-0.625 0.21679,-0.12413 0.67383,-0.70194 1.01566,-1.28403 0.34182,-0.58208 0.7261,-1.05833 0.85395,-1.05833 0.12786,0 0.37645,-0.4363 0.55244,-0.96955 0.17599,-0.53325 0.40809,-1.0095 0.51578,-1.05833 0.34461,-0.15627 1.74816,-3.14401 2.17796,-4.63623 0.51662,-1.79363 0.58863,-6.14004 0.1421,-8.57589 -0.30125,-1.6433 -1.00535,-3.23036 -1.83148,-4.1282 -0.16103,-0.17501 -0.48329,-0.59976 -0.71612,-0.94389 -0.4283,-0.63303 -3.44298,-3.71628 -4.4555,-4.55684 -0.30257,-0.25119 -1.20174,-0.82269 -1.99814,-1.27 -0.79641,-0.44731 -1.44814,-0.90854 -1.44829,-1.02496 -1.6e-4,-0.11641 -0.24371,-0.21166 -0.54122,-0.21166 -0.29751,0 -0.58326,-0.0952 -0.635,-0.21167 -0.15735,-0.35406 -1.88133,-1.48148 -2.26987,-1.48443 -0.20031,-0.001 -1.0004,-0.29902 -1.77798,-0.66112 -0.77759,-0.3621 -2.07555,-0.81712 -2.88436,-1.01115 -0.80881,-0.19403 -1.94571,-0.59502 -2.52644,-0.8911 -0.58073,-0.29607 -1.38438,-0.53831 -1.78588,-0.53831 -0.4015,0 -1.80339,-0.3785 -3.11532,-0.8411 -1.40962,-1.11942 -3.83892,-0.26454 -5.2317,-1.13039 -0.15299,-0.15298 -1.09914,-0.33317 -2.10256,-0.40043 -1.00342,-0.0673 -3.3484,-0.32237 -5.21107,-0.56691 -1.99665,-0.26213 -6.57212,-0.50305 -11.14778,-0.587 -14.422486,0.54104 -18.747947,-0.0548 -27.734419,1.25756 -0.822757,0.13391 -2.697847,0.71069 -4.166862,1.28175 -2.801281,1.08894 -11.729259,5.46555 -13.015617,6.38041 -0.412016,0.29302 -0.827543,0.53277 -0.923394,0.53277 -0.09585,0 -2.284967,1.41088 -4.86471,3.13527 -8.338703,5.57391 -14.162376,12.172 -17.036009,19.3014 -0.993458,2.46474 -0.940445,5.91484 0.139852,9.10167 0.434104,1.28058 0.899453,2.32833 1.034109,2.32833 0.134657,0 0.24483,0.1905 0.24483,0.42333 0,0.23284 0.118442,0.42334 0.263204,0.42334 0.144762,0 0.339048,0.23896 0.431746,0.53103 0.168768,0.53174 2.928065,3.47698 4.555792,4.8628 0.476217,0.40545 1.487268,1.10135 2.24678,1.54645 0.759512,0.44511 1.575606,1.00238 1.813543,1.23839 0.417852,0.41447 1.863449,1.1653 4.517824,2.34653 0.6985,0.31085 1.49376,0.67536 1.767247,0.81003 0.273485,0.13467 1.098985,0.43973 1.834444,0.67791 0.735457,0.23819 1.591198,0.54085 1.901642,0.67259 1.78904,0.75919 7.531642,2.28043 10.724444,2.84094 1.086556,0.19075 2.923667,0.52854 4.082472,0.75065 5.668416,1.08644 15.27655,1.53486 23.575302,1.10027 z m -31.544208,-2.02588 c -0.09378,-0.0938 -0.337199,-0.10381 -0.540927,-0.0223 -0.225137,0.0901 -0.158264,0.15697 0.17051,0.17051 0.297508,0.0122 0.464197,-0.0545 0.370417,-0.14823 z m 93.966998,-28.10463 c -0.0901,-0.22514 -0.15697,-0.15826 -0.17051,0.17051 -0.0122,0.29751 0.0545,0.4642 0.14823,0.37042 0.0938,-0.0938 0.10381,-0.3372 0.0223,-0.54093 z m -3.10444,-4.23333 c -0.0901,-0.22514 -0.15697,-0.15827 -0.17051,0.17051 -0.0122,0.2975 0.0545,0.46419 0.14823,0.37041 0.0938,-0.0938 0.1038,-0.33719 0.0223,-0.54092 z m 3.67861,-2.69487 c -0.0649,-0.429 -0.11968,-0.14499 -0.1218,0.63112 -0.002,0.77611 0.051,1.12711 0.11795,0.77999 0.067,-0.34712 0.0687,-0.98212 0.004,-1.41111 z m -3.67861,1.00153 c -0.0901,-0.22513 -0.15697,-0.15826 -0.17051,0.17051 -0.0122,0.29751 0.0545,0.4642 0.14823,0.37042 0.0938,-0.0938 0.1038,-0.3372 0.0223,-0.54093 z m 3.66301,-3.68652 c -0.0783,-0.19403 -0.14235,-0.0353 -0.14235,0.35277 0,0.38806 0.0641,0.54681 0.14235,0.35278 0.0783,-0.19403 0.0783,-0.51153 0,-0.70555 z M 89.588897,186.57047 Z m 6.843889,-1.1246 c 0,0 1.744649,-0.68763 0,0 z"
       id="path4896"
       inkscape:connector-curvature="0"
       sodipodi:nodetypes="cccsccccccscsssscsssscccssssssssssscssscscscsccssssccsssssssscsscsscssscccscsccsscsscsssccsccssscsssscssssssscsccscscccccsccsccscccscccssssccsssscsssssssccssccccccccsscccccscccscscssccsscccssssccscsssssssssscsssscscsssscsssssscsccsssscccccscscscsssccscccssccccscccssssscsssscscsccssccssscscccccssccscsssccsccccccsssscccsccccccsccccsscssscscsccsscsssssssssscssscsssssscsccsscscccsccssssssssssssssscssssccccccccccccccccccccccccccscccccc" />
  </g>
</svg>
