<?xml version="1.0" encoding="UTF-8" standalone="no"?>
<!-- Created with Inkscape (http://www.inkscape.org/) -->

<svg
   xmlns:dc="http://purl.org/dc/elements/1.1/"
   xmlns:cc="http://creativecommons.org/ns#"
   xmlns:rdf="http://www.w3.org/1999/02/22-rdf-syntax-ns#"
   xmlns:svg="http://www.w3.org/2000/svg"
   xmlns="http://www.w3.org/2000/svg"
   xmlns:sodipodi="http://sodipodi.sourceforge.net/DTD/sodipodi-0.dtd"
   xmlns:inkscape="http://www.inkscape.org/namespaces/inkscape"
   width="212.46815mm"
   height="212.46935mm"
   viewBox="0 0 752.83997 752.84414"
   id="svg2"
   version="1.1"
   inkscape:version="0.91 r13725"
   sodipodi:docname="no-more-forms.svg">
  <defs
     id="defs4" />
  <sodipodi:namedview
     id="base"
     pagecolor="#ffffff"
     bordercolor="#666666"
     borderopacity="1.0"
     inkscape:pageopacity="0.0"
     inkscape:pageshadow="2"
     inkscape:zoom="0.98994949"
     inkscape:cx="141.71942"
     inkscape:cy="365.41563"
     inkscape:document-units="px"
     inkscape:current-layer="layer1"
     showgrid="false"
     fit-margin-top="0"
     fit-margin-left="0"
     fit-margin-right="0"
     fit-margin-bottom="0"
     inkscape:window-width="2560"
     inkscape:window-height="1377"
     inkscape:window-x="1912"
     inkscape:window-y="-8"
     inkscape:window-maximized="1" />
  <metadata
     id="metadata7">
    <rdf:RDF>
      <cc:Work
         rdf:about="">
        <dc:format>image/svg+xml</dc:format>
        <dc:type
           rdf:resource="http://purl.org/dc/dcmitype/StillImage" />
        <dc:title></dc:title>
      </cc:Work>
    </rdf:RDF>
  </metadata>
  <g
     inkscape:label="Layer 1"
     inkscape:groupmode="layer"
     id="layer1"
     transform="translate(-101.50533,-35.896717)">
    <g
       id="g4213"
       transform="translate(221.64286,142.57649)"
       style="fill:#ffffff;fill-opacity:1">
      <g
         id="g4137"
         style="fill:#ffffff;fill-opacity:1">
        <path
           id="path4139"
           d="m 343,56 0,-24 -48.714,0 C 290.773,13.793 274.717,0 255.5,0 236.283,0 220.227,13.793 216.714,32 L 168,32 l 0,24 -96,0 0,455 367,0 0,-455 -96,0 z m 81,440 -337,0 0,-425 81,0 0,16.5 15,0 0,-40.5 48,0 0,-7.5 C 231,25.991 241.991,15 255.5,15 269.009,15 280,25.991 280,39.5 l 0,7.5 48,0 0,40.5 15,0 0,-16.5 81,0 0,425 z"
           inkscape:connector-curvature="0"
           style="fill:#ffffff;fill-opacity:1" />
        <rect
           id="rect4141"
           height="15"
           width="16"
           y="32"
           x="247.5"
           style="fill:#ffffff;fill-opacity:1" />
        <path
           id="path4143"
           d="m 104,479 303,0 0,-391 -303,0 0,391 z m 15,-376 273,0 0,361 -273,0 0,-361 z"
           inkscape:connector-curvature="0"
           style="fill:#ffffff;fill-opacity:1" />
        <rect
           id="rect4145"
           height="15"
           width="127.998"
           y="136"
           x="231.502"
           style="fill:#ffffff;fill-opacity:1" />
        <rect
           id="rect4147"
           height="15"
           width="63.998001"
           y="136"
           x="151.5"
           style="fill:#ffffff;fill-opacity:1" />
        <rect
           id="rect4149"
           height="15"
           width="55.997002"
           y="176"
           x="303.50299"
           style="fill:#ffffff;fill-opacity:1" />
        <rect
           id="rect4151"
           height="15"
           width="135.99699"
           y="176"
           x="151.5"
           style="fill:#ffffff;fill-opacity:1" />
        <rect
           id="rect4153"
           height="15"
           width="160.00101"
           y="216"
           x="199.49899"
           style="fill:#ffffff;fill-opacity:1" />
        <rect
           id="rect4155"
           height="15"
           width="32.001999"
           y="216"
           x="151.5"
           style="fill:#ffffff;fill-opacity:1" />
        <rect
           id="rect4157"
           height="15"
           width="88.002998"
           y="256"
           x="271.49701"
           style="fill:#ffffff;fill-opacity:1" />
        <rect
           id="rect4159"
           height="15"
           width="104"
           y="256"
           x="151.5"
           style="fill:#ffffff;fill-opacity:1" />
        <rect
           id="rect4161"
           height="15"
           width="39.997002"
           y="296"
           x="319.50299"
           style="fill:#ffffff;fill-opacity:1" />
        <rect
           id="rect4163"
           height="15"
           width="151.99899"
           y="296"
           x="151.5"
           style="fill:#ffffff;fill-opacity:1" />
        <rect
           id="rect4165"
           height="15"
           width="135.99699"
           y="336"
           x="223.50301"
           style="fill:#ffffff;fill-opacity:1" />
        <rect
           id="rect4167"
           height="15"
           width="55.997002"
           y="336"
           x="151.5"
           style="fill:#ffffff;fill-opacity:1" />
        <rect
           id="rect4169"
           height="15"
           width="72.001999"
           y="376"
           x="287.49799"
           style="fill:#ffffff;fill-opacity:1" />
        <rect
           id="rect4171"
           height="15"
           width="119.997"
           y="376"
           x="151.5"
           style="fill:#ffffff;fill-opacity:1" />
        <rect
           id="rect4173"
           height="15"
           width="160.00101"
           y="416"
           x="199.49899"
           style="fill:#ffffff;fill-opacity:1" />
        <rect
           id="rect4175"
           height="15"
           width="32.001999"
           y="416"
           x="151.5"
           style="fill:#ffffff;fill-opacity:1" />
      </g>
      <g
         id="g4177"
         style="fill:#ffffff;fill-opacity:1" />
      <g
         id="g4179"
         style="fill:#ffffff;fill-opacity:1" />
      <g
         id="g4181"
         style="fill:#ffffff;fill-opacity:1" />
      <g
         id="g4183"
         style="fill:#ffffff;fill-opacity:1" />
      <g
         id="g4185"
         style="fill:#ffffff;fill-opacity:1" />
      <g
         id="g4187"
         style="fill:#ffffff;fill-opacity:1" />
      <g
         id="g4189"
         style="fill:#ffffff;fill-opacity:1" />
      <g
         id="g4191"
         style="fill:#ffffff;fill-opacity:1" />
      <g
         id="g4193"
         style="fill:#ffffff;fill-opacity:1" />
      <g
         id="g4195"
         style="fill:#ffffff;fill-opacity:1" />
      <g
         id="g4197"
         style="fill:#ffffff;fill-opacity:1" />
      <g
         id="g4199"
         style="fill:#ffffff;fill-opacity:1" />
      <g
         id="g4201"
         style="fill:#ffffff;fill-opacity:1" />
      <g
         id="g4203"
         style="fill:#ffffff;fill-opacity:1" />
      <g
         id="g4205"
         style="fill:#ffffff;fill-opacity:1" />
    </g>
    <g
       id="g4289"
       transform="matrix(4.2520599,0,0,4.2520599,101.50108,35.896686)"
       style="fill:#e3a441;fill-opacity:1">
      <path
         id="path4251"
         d="m 0.001,88.527 c 0,48.814 39.713,88.527 88.527,88.527 48.813,0 88.526,-39.713 88.526,-88.527 C 177.054,39.713 137.341,0 88.528,0 39.714,0 0.001,39.713 0.001,88.527 Z M 88.528,24.304 c 35.413,0 64.224,28.811 64.224,64.224 0,13.324 -4.081,25.712 -11.055,35.983 L 52.544,35.359 C 62.816,28.385 75.204,24.304 88.528,24.304 Z m 35.983,117.392 c -10.272,6.974 -22.659,11.055 -35.983,11.055 -35.413,0 -64.223,-28.811 -64.223,-64.224 0,-13.324 4.081,-25.711 11.054,-35.983 l 89.152,89.152 z"
         inkscape:connector-curvature="0"
         style="fill:#e3a441;fill-opacity:1" />
      <g
         id="g4253"
         style="fill:#e3a441;fill-opacity:1" />
      <g
         id="g4255"
         style="fill:#e3a441;fill-opacity:1" />
      <g
         id="g4257"
         style="fill:#e3a441;fill-opacity:1" />
      <g
         id="g4259"
         style="fill:#e3a441;fill-opacity:1" />
      <g
         id="g4261"
         style="fill:#e3a441;fill-opacity:1" />
      <g
         id="g4263"
         style="fill:#e3a441;fill-opacity:1" />
      <g
         id="g4265"
         style="fill:#e3a441;fill-opacity:1" />
      <g
         id="g4267"
         style="fill:#e3a441;fill-opacity:1" />
      <g
         id="g4269"
         style="fill:#e3a441;fill-opacity:1" />
      <g
         id="g4271"
         style="fill:#e3a441;fill-opacity:1" />
      <g
         id="g4273"
         style="fill:#e3a441;fill-opacity:1" />
      <g
         id="g4275"
         style="fill:#e3a441;fill-opacity:1" />
      <g
         id="g4277"
         style="fill:#e3a441;fill-opacity:1" />
      <g
         id="g4279"
         style="fill:#e3a441;fill-opacity:1" />
      <g
         id="g4281"
         style="fill:#e3a441;fill-opacity:1" />
    </g>
  </g>
</svg>
